<?xml version="1.0" standalone="no"?>
<!DOCTYPE svg PUBLIC "-//W3C//DTD SVG 20010904//EN"
 "http://www.w3.org/TR/2001/REC-SVG-20010904/DTD/svg10.dtd">
<svg version="1.0" xmlns="http://www.w3.org/2000/svg"
 width="225.000000pt" height="225.000000pt" viewBox="0 0 225.000000 225.000000"
 preserveAspectRatio="xMidYMid meet">

<g transform="translate(0.000000,225.000000) scale(0.100000,-0.100000)"
fill="#000000" stroke="none">
<path d="M0 1125 l0 -1125 1125 0 1125 0 0 1125 0 1125 -1125 0 -1125 0 0
-1125z m1680 200 c15 -18 6 -61 -16 -69 -26 -10 -54 12 -54 43 0 15 3 31 7 34
12 12 50 7 63 -8z m-899 -33 c4 -4 5 -19 2 -33 -4 -24 -8 -26 -53 -21 -39 3
-51 1 -69 -17 -27 -27 -29 -114 -5 -150 15 -21 23 -23 70 -19 49 4 53 3 59
-20 9 -36 -9 -47 -78 -47 -104 1 -147 47 -147 161 0 89 27 132 99 155 28 9
111 3 122 -9z m184 -56 c48 -20 68 -65 63 -138 -3 -46 -10 -64 -30 -84 -50
-50 -164 -40 -193 16 -8 16 -15 56 -15 89 0 49 4 65 25 90 35 41 91 51 150 27z
m886 4 c45 -13 60 -30 70 -78 6 -34 7 -32 8 21 l1 57 40 0 c22 0 40 -5 40 -10
0 -7 6 -7 19 0 37 19 51 12 51 -25 0 -28 -4 -35 -19 -35 -47 0 -51 -8 -51 -96
l0 -84 -40 0 -40 0 0 53 0 52 -81 -3 c-76 -3 -80 -5 -77 -25 3 -25 52 -37 71
-18 14 14 77 14 77 1 0 -21 -49 -59 -85 -66 -81 -15 -134 28 -142 113 -7 66
16 119 59 138 40 17 52 18 99 5z m-741 -90 c0 -79 2 -91 20 -100 14 -8 26 -8
40 0 18 9 20 21 20 100 l0 90 35 0 35 0 0 -103 c0 -94 -2 -105 -22 -124 -30
-28 -88 -38 -132 -23 -56 18 -66 41 -66 152 l0 98 35 0 35 0 0 -90z m240 80
c0 -7 6 -7 19 0 11 5 47 10 80 10 35 0 61 -4 61 -10 0 -7 6 -7 19 0 37 19 51
12 51 -25 0 -30 -3 -35 -23 -35 -38 0 -47 -19 -47 -102 l0 -78 -40 0 -40 0 0
94 0 93 -32 -6 -33 -7 -3 -87 -3 -87 -39 0 -40 0 0 125 0 125 35 0 c19 0 35
-5 35 -10z m330 -115 l0 -125 -34 0 -35 0 -5 83 c-2 45 -8 101 -11 125 l-7 42
46 0 46 0 0 -125z m-1440 20 l0 -95 45 0 c41 0 45 -2 45 -25 0 -25 -1 -25 -80
-25 l-80 0 0 120 0 120 35 0 35 0 0 -95z m244 24 c20 -16 26 -29 26 -60 l0
-39 -56 0 c-40 0 -54 -3 -51 -12 2 -9 21 -12 56 -10 51 4 52 3 41 -17 -24 -45
-109 -51 -145 -11 -12 13 -17 36 -17 72 0 44 4 56 26 75 34 29 84 30 120 2z
m946 -245 l0 -55 -42 3 c-40 3 -43 5 -46 35 -2 24 2 34 18 43 11 6 25 8 30 5
6 -3 10 1 10 9 0 9 7 16 15 16 12 0 15 -13 15 -56z m170 0 c0 -40 -4 -55 -12
-52 -14 5 -23 70 -14 94 12 32 26 11 26 -42z m30 31 c0 -14 -4 -25 -8 -25 -4
0 -9 11 -10 25 -1 14 3 25 8 25 6 0 10 -11 10 -25z m380 10 c0 -8 8 -15 18
-15 16 -1 16 -1 0 -14 -23 -17 -23 -46 -1 -46 13 0 14 -3 6 -11 -18 -18 -43
-2 -43 26 0 14 -3 25 -7 26 -5 0 -18 2 -30 3 -29 3 -30 -10 -2 -17 32 -8 21
-42 -14 -42 -15 0 -27 5 -27 10 1 6 11 9 23 8 l22 -3 -22 10 c-25 10 -31 45
-10 53 7 3 25 3 40 0 20 -4 27 -1 27 11 0 9 5 16 10 16 6 0 10 -7 10 -15z
m-505 -19 c16 -12 18 -19 10 -42 -11 -32 -38 -42 -60 -24 -20 17 -19 57 3 69
22 14 25 13 47 -3z m193 -2 c37 -26 23 -74 -23 -74 -42 0 -59 44 -29 74 19 20
24 20 52 0z m186 0 c32 -32 6 -81 -37 -70 -22 5 -27 12 -27 36 0 17 7 33 18
39 23 14 28 14 46 -5z m-132 -21 c4 -39 28 -42 28 -4 0 21 5 31 15 31 11 0 15
-11 15 -41 l0 -40 -37 3 c-36 3 -38 5 -41 41 -4 42 15 52 20 10z"/>
<path d="M870 1171 c-5 -11 -10 -36 -10 -56 0 -20 5 -45 10 -56 14 -25 68 -26
78 -1 11 27 6 100 -8 117 -17 21 -57 19 -70 -4z"/>
<path d="M1771 1168 c-8 -21 -6 -23 31 -26 22 -2 43 -1 46 3 12 12 -15 40 -42
43 -20 3 -28 -2 -35 -20z"/>
<path d="M407 1124 c-14 -14 -6 -24 19 -24 16 0 24 5 22 13 -5 14 -31 21 -41
11z"/>
<path d="M1362 903 c2 -10 10 -18 18 -18 8 0 16 8 18 18 2 12 -3 17 -18 17
-15 0 -20 -5 -18 -17z"/>
<path d="M1465 920 c-3 -5 3 -10 15 -10 12 0 18 5 15 10 -3 6 -10 10 -15 10
-5 0 -12 -4 -15 -10z"/>
<path d="M1468 883 c7 -3 16 -2 19 1 4 3 -2 6 -13 5 -11 0 -14 -3 -6 -6z"/>
<path d="M1655 910 c-8 -14 3 -30 21 -30 8 0 14 9 14 20 0 21 -24 28 -35 10z"/>
<path d="M1845 920 c-3 -5 1 -10 9 -10 9 0 16 5 16 10 0 6 -4 10 -9 10 -6 0
-13 -4 -16 -10z"/>
<path d="M1848 883 c7 -3 16 -2 19 1 4 3 -2 6 -13 5 -11 0 -14 -3 -6 -6z"/>
</g>
</svg>
