<?xml version="1.0" standalone="no"?>
<!DOCTYPE svg PUBLIC "-//W3C//DTD SVG 20010904//EN"
 "http://www.w3.org/TR/2001/REC-SVG-20010904/DTD/svg10.dtd">
<svg version="1.0" xmlns="http://www.w3.org/2000/svg"
 width="351.000000pt" height="349.000000pt" viewBox="0 0 351.000000 349.000000"
 preserveAspectRatio="xMidYMid meet">

<g transform="translate(0.000000,349.000000) scale(0.100000,-0.100000)"
fill="#000000" stroke="none">
<path d="M929 3283 c0 -115 -2 -219 -5 -233 -9 -57 -10 -237 -1 -262 10 -30
31 -37 40 -14 5 13 9 357 8 619 -1 90 -2 97 -21 97 -19 0 -20 -7 -21 -207z"/>
<path d="M1040 3320 c-13 -8 -12 -10 3 -10 9 0 17 5 17 10 0 12 -1 12 -20 0z"/>
<path d="M1470 3130 c0 -16 7 -20 30 -20 17 0 33 0 37 -1 4 0 9 4 11 10 2 6
-10 11 -27 11 -17 0 -31 5 -31 10 0 6 -4 10 -10 10 -5 0 -10 -9 -10 -20z"/>
<path d="M2210 3134 c0 -8 5 -12 10 -9 6 3 10 10 10 16 0 5 -4 9 -10 9 -5 0
-10 -7 -10 -16z"/>
<path d="M1212 3016 c-42 -16 -69 -34 -101 -70 -14 -16 -35 -38 -46 -50 -38
-40 -73 -176 -45 -176 7 0 6 -9 -5 -27 -14 -25 -15 -32 -1 -63 26 -63 73 -100
125 -100 33 0 81 19 81 32 0 4 14 8 30 8 17 0 30 -4 30 -10 0 -5 16 -10 35
-10 19 0 35 5 35 10 0 6 30 10 70 10 40 0 70 4 70 10 0 6 13 10 28 10 15 0 33
5 38 10 14 14 257 15 262 1 2 -6 9 -11 16 -11 15 0 38 -52 56 -121 16 -61 3
-194 -23 -247 -9 -18 -16 -22 -39 -17 -25 6 -28 4 -28 -18 0 -41 26 -79 75
-109 75 -47 111 -129 80 -187 -17 -33 -20 -77 -6 -86 5 -3 26 6 47 20 20 14
41 25 45 25 5 0 9 -20 9 -45 0 -25 5 -45 10 -45 6 0 10 9 10 20 0 11 5 20 10
20 6 0 10 9 10 20 0 11 4 20 8 20 5 0 20 9 33 20 12 12 32 20 44 18 11 -1 29
3 40 9 11 6 25 9 31 6 6 -2 29 15 51 37 23 22 51 40 62 40 12 0 21 5 21 10 0
6 11 10 25 10 29 0 75 -40 75 -65 0 -8 5 -15 11 -15 30 0 -10 -258 -41 -268
-5 -2 -10 -11 -10 -21 0 -9 -9 -23 -20 -31 -11 -8 -20 -20 -20 -27 0 -7 -4
-13 -10 -13 -6 0 -10 -37 -10 -90 0 -53 4 -90 10 -90 6 0 10 -18 10 -40 0 -22
5 -40 10 -40 6 0 10 -9 10 -20 0 -11 3 -20 6 -20 11 0 34 29 34 44 0 9 3 16 8
16 14 0 32 79 32 140 0 34 6 73 14 88 7 15 19 65 26 112 11 78 39 193 61 248
5 13 9 37 9 53 0 17 5 39 11 51 11 21 13 223 4 337 -6 63 -29 131 -45 131 -5
0 -11 6 -13 13 -2 6 -3 0 -1 -15 4 -35 -10 -36 -38 -3 l-22 25 -19 -44 -19
-44 -33 22 c-19 11 -34 27 -35 34 0 12 -12 16 -38 13 -18 -3 -49 34 -71 85
-10 23 -24 44 -30 48 -16 11 -2 -55 18 -79 9 -11 23 -33 31 -49 14 -28 53 -51
78 -47 18 3 15 -16 -4 -23 -44 -17 -126 7 -110 32 3 6 -2 8 -11 6 -10 -2 -43
10 -73 28 -45 27 -51 33 -33 36 23 3 83 -23 95 -42 5 -7 8 -7 8 2 0 16 -24 42
-39 42 -6 0 -11 5 -11 10 0 6 -7 10 -15 10 -22 0 -73 52 -57 58 18 6 15 32 -5
39 -26 10 -83 70 -83 87 0 24 -42 46 -132 70 -46 12 -88 25 -94 29 -19 11
-265 10 -277 -2 -6 -6 -21 -11 -33 -11 -12 0 -24 -4 -26 -8 -1 -5 -15 -12 -30
-16 -25 -6 -28 -4 -28 19 0 18 5 25 20 25 11 0 20 5 20 10 0 6 11 10 24 10 14
0 28 5 31 10 3 6 19 10 36 10 16 0 29 5 29 10 0 6 35 10 85 10 50 0 85 4 85
10 0 6 -31 10 -72 10 l-73 0 25 20 c14 11 34 20 44 20 30 0 11 12 -31 20 -37
7 -37 7 -13 17 25 10 25 10 -10 19 -56 13 -312 6 -323 -9 -6 -9 -7 -8 -4 3 2
8 12 17 23 18 10 2 23 8 29 13 14 13 -104 9 -143 -5z m351 -73 c-13 -2 -35 -2
-50 0 -16 2 -5 4 22 4 28 0 40 -2 28 -4z m-463 -98 c0 -8 -4 -15 -10 -15 -5 0
-10 -11 -10 -24 0 -14 -4 -28 -10 -31 -5 -3 -11 -39 -11 -78 -1 -71 -2 -71
-11 -27 -5 25 -9 56 -9 69 -1 28 30 101 43 101 5 0 6 5 3 10 -3 6 -1 10 4 10
6 0 11 -7 11 -15z m120 -33 c0 -4 -9 -14 -20 -22 -11 -8 -20 -20 -20 -27 0 -7
-4 -13 -10 -13 -17 0 -11 19 13 45 23 24 37 31 37 17z m-60 -82 c0 -5 -2 -10
-4 -10 -3 0 -8 5 -11 10 -3 6 -1 10 4 10 6 0 11 -4 11 -10z m1203 -510 c-3
-11 -12 -20 -19 -20 -17 0 -17 5 -3 31 13 24 29 16 22 -11z m112 -164 c1 -25
-1 -46 -6 -46 -5 0 -9 9 -9 20 0 11 -6 29 -12 40 -11 17 -10 22 2 30 20 12 22
9 25 -44z"/>
<path d="M2010 2870 c0 -5 9 -10 20 -10 11 0 20 -4 20 -10 0 -5 9 -10 20 -10
22 0 27 -15 8 -24 -7 -3 -3 -3 10 0 23 6 31 -10 10 -19 -7 -3 2 -3 20 0 27 5
32 2 32 -14 0 -10 13 -27 30 -36 17 -10 30 -23 30 -28 0 -5 6 -4 14 3 19 18
-9 74 -46 90 -15 7 -28 16 -28 20 0 5 -9 8 -20 8 -11 0 -20 5 -20 10 0 6 -9
10 -20 10 -11 0 -20 5 -20 10 0 6 -13 10 -30 10 -16 0 -30 -4 -30 -10z"/>
<path d="M2325 2718 c4 -13 9 -38 12 -55 3 -18 10 -33 17 -33 15 1 53 30 38
30 -7 0 -12 7 -12 15 0 8 -4 15 -10 15 -5 0 -10 5 -10 11 0 12 -25 39 -35 39
-4 0 -4 -10 0 -22z"/>
<path d="M910 2692 c0 -38 -93 -44 -455 -29 -82 4 -186 3 -230 -2 -44 -4 -65
-9 -47 -10 17 0 32 -4 32 -8 0 -5 73 -10 162 -11 95 -2 166 -8 169 -14 4 -6
32 -8 70 -4 83 7 77 7 197 0 72 -5 102 -3 102 5 0 6 11 11 24 11 31 0 36 16
18 52 -15 32 -42 38 -42 10z"/>
<path d="M2260 2685 c0 -8 5 -15 10 -15 6 0 10 -6 10 -14 0 -15 18 -32 25 -24
2 2 -3 18 -12 36 -16 34 -33 42 -33 17z"/>
<path d="M3160 2620 c-8 -5 -78 -9 -155 -9 -189 1 -205 1 -205 -11 0 -5 18
-10 39 -10 40 0 40 0 47 -47 4 -25 3 -215 -1 -422 -5 -207 -8 -383 -8 -391 2
-89 12 -232 17 -237 3 -4 6 0 7 8 0 8 2 43 4 79 9 177 18 276 27 288 7 8 7 16
0 25 -15 17 -16 563 -1 605 9 26 16 32 40 32 16 0 29 5 29 11 0 10 233 7 358
-6 42 -5 62 -3 62 4 0 6 19 11 45 11 43 0 45 1 45 30 l0 29 -152 3 c-84 2
-160 6 -168 10 -8 4 -22 3 -30 -2z"/>
<path d="M2471 2596 c7 -14 16 -26 21 -26 4 0 8 -15 8 -32 1 -27 2 -30 11 -16
7 12 5 28 -8 54 -21 44 -51 63 -32 20z"/>
<path d="M2380 2570 c0 -11 5 -20 10 -20 6 0 10 -9 10 -20 0 -11 5 -20 10 -20
6 0 10 9 10 20 0 11 -4 20 -10 20 -5 0 -10 9 -10 20 0 11 -4 20 -10 20 -5 0
-10 -9 -10 -20z"/>
<path d="M890 1960 c0 -5 -9 -10 -19 -10 -25 0 -34 -26 -16 -44 8 -8 15 -19
15 -25 0 -6 3 -11 8 -11 8 0 32 -49 32 -67 0 -13 18 -19 76 -26 37 -4 54 16
54 62 0 40 -87 131 -124 131 -14 0 -26 -4 -26 -10z"/>
<path d="M1180 1960 c0 -5 -9 -10 -20 -10 -11 0 -20 -4 -20 -10 0 -5 -7 -10
-15 -10 -9 0 -18 -6 -21 -14 -6 -16 24 -56 42 -56 7 0 14 -3 16 -7 5 -12 64
-43 80 -43 8 0 21 -11 28 -25 15 -27 46 -36 36 -10 -10 26 41 37 157 36 88 -2
107 1 107 13 0 8 -8 17 -19 21 -25 8 -61 40 -61 54 0 6 -13 11 -30 11 -16 0
-30 5 -30 10 0 6 -11 10 -24 10 -16 0 -27 7 -31 20 -6 18 -15 20 -101 20 -56
0 -94 -4 -94 -10z"/>
<path d="M2393 1935 c-18 -20 -16 -25 7 -25 13 0 20 -7 20 -20 0 -11 5 -20 10
-20 6 0 10 -17 11 -37 0 -31 2 -34 9 -18 18 41 11 90 -15 113 -29 26 -27 25
-42 7z"/>
<path d="M3006 1927 c-12 -15 -20 -18 -23 -9 -5 13 -43 17 -43 4 0 -10 45 -32
65 -32 8 0 15 9 15 20 0 11 5 20 10 20 6 0 10 5 10 10 0 16 -14 11 -34 -13z"/>
<path d="M2290 1791 c0 -5 7 -11 15 -15 8 -3 15 -1 15 3 0 5 -7 11 -15 15 -8
3 -15 1 -15 -3z"/>
<path d="M1320 1749 c0 -5 11 -9 25 -9 14 0 25 2 25 4 0 2 -11 6 -25 8 -14 3
-25 1 -25 -3z"/>
<path d="M975 1737 c-17 -13 -17 -14 4 -20 16 -4 21 -1 21 14 0 23 -1 23 -25
6z"/>
<path d="M1943 1602 c-2 -64 1 -83 11 -79 8 3 17 -12 26 -42 7 -25 16 -50 20
-56 16 -23 19 -74 5 -89 -8 -8 -15 -22 -15 -31 0 -9 -4 -14 -9 -11 -5 3 -9 22
-8 41 1 38 -6 51 -22 41 -6 -4 -8 -20 -4 -36 3 -20 1 -30 -6 -30 -8 0 -10 8
-6 20 5 15 2 20 -13 20 -12 0 -22 -9 -25 -21 -7 -28 -32 -19 -32 12 0 17 -7
25 -23 27 -17 3 -22 10 -22 34 0 25 -3 29 -19 25 -10 -2 -25 0 -34 4 -20 12
-35 -10 -16 -22 10 -6 8 -13 -11 -30 -17 -14 -21 -23 -12 -26 6 -3 12 -9 12
-14 0 -14 -38 -11 -42 3 -6 16 -43 -20 -53 -51 -5 -17 -10 -20 -18 -12 -6 6
-19 11 -29 11 -10 0 -22 8 -25 18 -10 25 -105 117 -141 136 -42 22 -52 20 -52
-8 0 -24 -34 -43 -45 -25 -3 4 -11 6 -18 3 -7 -2 -18 5 -25 16 -10 17 -10 28
0 56 6 19 18 34 25 34 19 0 16 10 -9 32 l-22 19 -13 -36 c-14 -42 -35 -65 -58
-65 -20 0 -141 -37 -169 -52 -26 -14 -105 -12 -122 3 -11 9 -14 7 -14 -10 0
-11 5 -21 10 -21 6 0 10 -7 10 -16 0 -8 7 -22 15 -30 8 -9 15 -24 15 -35 0
-10 4 -19 9 -19 5 0 12 -9 16 -20 3 -10 25 -48 49 -82 52 -77 66 -112 70 -169
1 -24 5 -51 9 -59 4 -8 0 -23 -8 -34 -12 -16 -19 -17 -55 -8 -23 6 -42 6 -46
1 -9 -15 -34 -10 -34 6 0 8 7 15 15 15 10 0 15 10 15 30 l0 30 -71 0 c-57 0
-75 -4 -88 -18 -9 -10 -24 -21 -33 -25 -10 -3 -18 -12 -18 -20 0 -18 63 -47
103 -47 18 0 37 -4 42 -8 7 -4 12 -83 13 -204 2 -171 0 -198 -13 -198 -8 0
-15 -4 -15 -10 0 -5 -7 -10 -15 -10 -8 0 -15 -4 -15 -10 0 -5 -9 -10 -20 -10
-11 0 -20 -4 -20 -10 0 -5 -6 -10 -13 -10 -7 0 -23 -9 -35 -20 -12 -11 -27
-20 -34 -20 -26 0 -180 -82 -225 -120 -7 -5 -17 -10 -23 -10 -28 0 -159 -137
-200 -209 -8 -14 -19 -29 -25 -33 -5 -4 243 -8 553 -8 l562 0 0 143 c0 79 -4
147 -8 152 -5 6 -15 30 -22 55 -8 25 -17 47 -20 50 -7 5 -60 202 -60 220 0 6
10 10 22 8 18 -2 26 -16 42 -73 10 -38 21 -98 23 -132 3 -35 9 -63 14 -63 5 0
9 -13 9 -30 0 -16 5 -30 10 -30 6 0 10 -57 10 -150 l0 -150 274 0 274 0 26 52
c14 29 26 58 26 65 0 7 5 13 10 13 6 0 10 14 10 30 0 17 5 30 10 30 6 0 10 11
10 25 0 25 -1 25 -55 19 -76 -9 -197 13 -270 48 -93 46 -235 141 -235 158 0 9
-9 22 -20 30 -12 8 -20 26 -20 42 0 15 -4 28 -10 28 -5 0 -10 25 -10 56 0 47
3 55 16 50 9 -3 22 -6 29 -6 8 0 20 -6 27 -13 26 -24 114 -65 154 -71 37 -5
44 -3 71 27 17 17 40 39 51 47 14 9 18 18 12 24 -18 18 -11 36 14 36 16 0 27
7 31 20 3 11 11 20 16 20 5 0 9 13 9 29 0 16 4 31 8 33 4 2 18 20 31 41 12 20
29 37 36 37 17 0 27 27 14 36 -6 3 -19 -2 -29 -11 -11 -10 -20 -12 -24 -6 -4
5 -2 12 3 16 6 3 8 12 4 20 -3 9 1 15 9 15 24 0 79 31 73 40 -3 5 -3 21 1 35
5 21 12 25 43 25 33 0 37 3 48 38 7 22 8 38 2 40 -11 4 -12 32 -1 32 33 0 67
69 43 84 -9 6 9 56 20 56 3 0 7 29 7 64 1 47 -3 68 -16 82 -44 48 -62 84 -62
123 0 23 -4 41 -10 41 -6 0 -10 -28 -10 -65 0 -37 4 -65 10 -65 6 0 10 -9 10
-20 0 -23 -1 -24 -35 -8 -14 6 -25 17 -25 25 0 7 -4 13 -10 13 -5 0 -10 23
-10 50 0 46 -12 66 -23 38 -3 -9 -7 -6 -13 6 -5 13 -3 21 4 24 7 2 12 18 11
35 0 18 -3 26 -6 20 -8 -21 -31 -15 -35 10 -2 12 -4 -16 -5 -61z m-587 -321
c5 -5 23 -11 39 -13 24 -2 31 -8 33 -30 3 -28 -3 -32 -41 -28 -10 1 -24 -3
-30 -8 -7 -6 -23 -10 -37 -11 -46 0 -92 -13 -97 -28 -4 -11 -15 -13 -43 -8
-22 4 -41 2 -44 -3 -10 -16 24 -43 45 -37 11 4 19 2 19 -4 0 -6 5 -11 10 -11
6 0 10 5 10 11 0 23 29 39 65 35 20 -3 47 2 63 10 15 7 33 14 40 14 7 0 15 7
18 15 4 8 15 15 25 15 10 0 19 7 19 15 0 8 9 15 20 15 11 0 20 5 20 10 0 14
36 12 48 -2 5 -7 16 -31 23 -52 11 -31 11 -40 2 -43 -15 -5 -18 -43 -4 -43 5
0 14 7 21 15 24 29 35 -1 11 -31 -14 -18 -21 -41 -21 -71 0 -68 -30 -113 -74
-113 -16 0 -26 -6 -26 -15 0 -8 -9 -15 -19 -15 -11 0 -23 -4 -26 -10 -3 -5
-19 -10 -36 -10 -16 0 -29 -4 -29 -8 0 -5 -8 -19 -19 -31 l-19 -21 -5 22 -6
22 -24 -22 c-13 -12 -33 -22 -44 -22 -12 0 -24 -7 -27 -16 -4 -9 -13 -14 -21
-10 -8 3 -15 1 -15 -4 0 -6 -4 -10 -10 -10 -5 0 -10 14 -10 30 0 17 -4 30 -10
30 -5 0 -10 21 -10 48 l0 47 85 1 c72 0 87 3 100 20 20 27 14 48 -15 52 -14 2
-30 8 -37 14 -6 5 -36 9 -66 9 -70 0 -80 11 -101 114 -10 44 -20 90 -23 102
-8 32 19 56 50 44 14 -6 29 -6 38 0 8 5 39 9 69 9 30 0 62 5 70 10 19 12 33
13 46 1z m574 -23 c0 7 5 12 10 12 6 0 10 -7 10 -15 0 -8 -4 -15 -10 -15 -5 0
-11 -12 -11 -27 -2 -25 -2 -25 -6 -5 -3 13 -10 25 -18 28 -7 3 -11 14 -7 26 5
20 6 20 19 3 7 -11 13 -13 13 -7z m-50 -32 c0 -8 -4 -18 -10 -21 -5 -3 -10 3
-10 14 0 12 5 21 10 21 6 0 10 -6 10 -14z m230 -20 c0 -3 -4 -8 -10 -11 -5 -3
-10 -1 -10 4 0 6 5 11 10 11 6 0 10 -2 10 -4z m-20 -96 c0 -5 -4 -10 -10 -10
-5 0 -10 -9 -10 -20 0 -11 -4 -20 -10 -20 -14 0 -12 28 3 45 14 17 27 19 27 5z
m-183 -252 c-3 -8 -6 -5 -6 6 -1 11 2 17 5 13 3 -3 4 -12 1 -19z m-842 -17
c23 -14 31 -26 33 -54 2 -20 7 -37 13 -37 5 0 9 -8 9 -18 0 -10 9 -24 20 -32
11 -8 20 -22 20 -32 0 -11 7 -18 20 -18 35 0 21 -24 -33 -55 -28 -16 -59 -32
-67 -34 -8 -2 -27 -12 -42 -22 -50 -36 -51 -32 -46 134 7 197 10 205 73 168z
m789 -96 c-4 -8 -12 -15 -20 -15 -17 0 -18 17 -1 23 22 9 27 7 21 -8z"/>
<path d="M2010 1650 c0 -23 4 -30 20 -30 16 0 20 7 20 30 0 23 -4 30 -20 30
-16 0 -20 -7 -20 -30z"/>
<path d="M2170 1487 c0 -14 20 -37 32 -37 15 0 8 38 -8 44 -22 8 -24 8 -24 -7z"/>
<path d="M2886 1438 c-12 -56 -12 -249 0 -258 9 -8 13 13 18 87 3 54 8 115 9
136 3 44 -19 73 -27 35z"/>
<path d="M1860 1425 c0 -8 7 -15 16 -15 14 0 14 3 4 15 -7 8 -14 15 -16 15 -2
0 -4 -7 -4 -15z"/>
<path d="M2871 1004 c-9 -11 -11 -29 -7 -57 11 -73 -4 -82 -125 -80 -56 0
-104 5 -108 10 -9 12 -54 9 -59 -5 -3 -10 31 -69 49 -82 7 -6 20 -65 20 -95 1
-39 -22 -114 -51 -167 -14 -26 -12 -32 5 -14 8 8 15 19 15 25 0 6 5 11 10 11
6 0 10 5 10 10 0 6 9 20 20 32 l20 22 0 -27 c0 -15 -4 -27 -10 -27 -5 0 -10
-6 -10 -13 0 -7 -20 -35 -45 -63 -24 -27 -44 -52 -45 -56 0 -5 -5 -8 -11 -8
-6 0 -16 -6 -24 -12 -73 -70 -279 -158 -369 -158 -45 0 -66 -13 -66 -42 0 -10
-4 -18 -10 -18 -5 0 -10 -13 -10 -30 0 -16 -4 -30 -10 -30 -5 0 -10 -13 -10
-30 0 -16 -4 -30 -10 -30 -5 0 -10 -9 -10 -20 0 -11 -4 -20 -10 -20 -5 0 -10
-7 -10 -15 0 -13 90 -15 750 -15 l750 0 0 275 0 274 -42 25 c-24 13 -54 27
-68 31 -14 4 -52 21 -84 36 -33 16 -65 29 -73 29 -7 0 -13 5 -13 10 0 6 -15
10 -34 10 -19 0 -38 5 -41 10 -3 6 -22 10 -41 10 -19 0 -34 5 -34 10 0 6 -18
10 -40 10 -22 0 -40 5 -40 10 0 6 -13 10 -30 10 -16 0 -30 5 -30 10 0 6 -7 10
-15 10 -8 0 -23 4 -33 9 -9 5 -30 15 -45 22 -27 12 -27 14 -10 26 10 8 29 11
44 8 l26 -6 1 78 c1 110 -7 131 -37 97z"/>
<path d="M3105 820 c-4 -6 8 -10 29 -10 20 0 36 5 36 10 0 6 -13 10 -29 10
-17 0 -33 -4 -36 -10z"/>
</g>
</svg>
