<?xml version="1.0" standalone="no"?>
<!DOCTYPE svg PUBLIC "-//W3C//DTD SVG 20010904//EN"
 "http://www.w3.org/TR/2001/REC-SVG-20010904/DTD/svg10.dtd">
<svg version="1.0" xmlns="http://www.w3.org/2000/svg"
 width="350.000000pt" height="350.000000pt" viewBox="0 0 350.000000 350.000000"
 preserveAspectRatio="xMidYMid meet">

<g transform="translate(0.000000,350.000000) scale(0.100000,-0.100000)"
fill="#000000" stroke="none">
<path d="M2570 3430 c0 -62 3 -72 27 -94 l27 -25 14 37 c15 39 17 55 14 115
-2 36 -3 37 -42 37 l-40 0 0 -70z"/>
<path d="M1745 3380 c-27 -4 -69 -13 -93 -19 -24 -6 -47 -9 -52 -6 -5 3 -34
-4 -64 -16 -31 -11 -60 -18 -65 -15 -5 4 -12 2 -16 -4 -3 -5 -19 -10 -35 -10
-16 0 -35 -7 -44 -15 -8 -8 -21 -15 -28 -15 -7 0 -24 -7 -36 -16 -12 -8 -58
-33 -102 -55 -43 -22 -88 -51 -99 -64 -10 -14 -23 -25 -28 -25 -6 0 -50 -40
-99 -88 -49 -49 -100 -95 -114 -102 -14 -7 -29 -19 -33 -26 -4 -8 -34 -30 -65
-50 -83 -53 -132 -113 -162 -195 -11 -30 -19 -48 -20 -41 0 24 -30 12 -30 -12
0 -48 -64 -48 -159 -1 -38 19 -79 35 -90 35 -11 0 -38 6 -58 14 -21 8 -74 24
-118 36 -44 11 -92 28 -107 36 l-28 15 0 -599 0 -599 133 -8 c115 -7 456 -8
527 -1 14 1 44 8 68 16 23 7 45 10 49 7 3 -4 -17 -29 -46 -57 -28 -27 -51 -54
-51 -60 0 -6 -5 -16 -10 -23 -82 -97 -143 -178 -137 -183 2 -2 21 14 41 36 20
22 45 40 57 40 31 0 61 20 55 36 -3 7 4 23 16 33 13 13 18 26 14 37 -5 13 -2
15 14 11 11 -3 20 -1 20 4 0 5 5 9 10 9 6 0 10 -36 10 -87 0 -70 -6 -108 -30
-183 -28 -88 -82 -209 -105 -237 -5 -6 -20 -24 -32 -40 -12 -15 -37 -48 -57
-73 -19 -24 -33 -46 -31 -49 7 -7 57 30 102 76 26 28 43 39 43 29 0 -8 -8 -23
-19 -33 -23 -23 -45 -63 -33 -63 11 0 31 23 73 85 41 60 53 83 80 155 l20 55
-5 -97 c-3 -58 -2 -98 4 -98 5 0 3 -18 -5 -40 -8 -24 -10 -42 -4 -45 14 -9 11
-62 -6 -79 -8 -8 -15 -17 -15 -19 0 -2 -16 -21 -35 -41 -19 -21 -35 -44 -35
-52 0 -8 -4 -14 -8 -14 -5 0 -19 -15 -32 -32 -19 -27 -20 -30 -4 -18 10 8 24
22 30 30 7 8 24 28 38 43 14 16 41 52 60 81 48 76 56 77 49 9 -5 -50 -11 -63
-42 -94 -20 -19 -56 -57 -81 -83 -52 -56 -185 -160 -217 -170 -13 -4 -23 -12
-23 -17 0 -5 -7 -9 -15 -9 -8 0 -15 -7 -15 -16 0 -16 54 -119 76 -145 8 -8 14
-21 14 -27 0 -7 3 -12 8 -12 4 0 12 -8 17 -18 6 -10 24 -39 40 -65 l30 -46
287 -1 287 0 -27 45 c-15 24 -34 45 -42 45 -10 0 -11 3 -4 8 9 5 0 32 -27 90
-21 46 -39 89 -39 96 0 7 -4 16 -9 22 -6 5 -23 50 -40 99 -26 79 -28 92 -16
105 13 12 15 12 15 -2 0 -9 3 -18 8 -20 4 -1 20 -29 36 -60 15 -32 46 -75 67
-95 21 -21 39 -41 39 -45 0 -3 24 -42 53 -86 71 -108 73 -111 98 -159 l22 -42
354 -1 353 0 -1 37 c-2 65 31 238 57 300 8 17 14 40 14 51 0 11 7 33 15 48 8
16 15 37 15 47 0 9 4 25 10 35 17 31 50 111 50 121 0 10 15 30 45 65 6 6 19
31 30 56 23 52 55 93 55 69 0 -8 -7 -27 -15 -43 -8 -15 -15 -32 -15 -37 0 -16
17 -10 24 9 3 9 9 24 14 32 33 56 72 143 72 160 0 11 5 20 11 20 6 0 9 9 6 20
-3 11 -1 20 4 20 5 0 8 26 7 58 -2 54 3 72 46 161 15 33 15 343 -1 362 -6 8
-11 25 -11 39 1 14 -2 59 -6 100 l-6 75 18 -50 c12 -30 21 -43 23 -33 4 15 6
15 27 -2 20 -16 24 -32 29 -95 5 -63 9 -75 24 -75 10 0 24 9 31 19 19 26 34
14 41 -33 4 -22 10 -42 15 -45 5 -3 15 -46 22 -96 43 -308 111 -488 223 -590
51 -45 190 -125 219 -125 18 0 59 -30 41 -30 -10 0 19 -20 30 -20 5 0 5 5 1
11 -4 7 1 9 12 7 11 -2 18 -11 17 -22 -1 -13 4 -15 15 -10 26 10 52 7 71 -10
10 -9 24 -16 32 -16 8 0 24 -7 36 -15 11 -8 33 -19 48 -25 24 -9 26 -8 20 12
-11 35 -69 151 -82 166 -16 17 -17 52 -2 52 7 0 17 -7 24 -17 7 -9 17 -13 23
-9 13 8 8 19 -38 91 -30 49 -40 56 -63 51 -9 -2 -15 -1 -12 4 3 4 -7 29 -20
55 -14 26 -23 55 -20 64 3 11 -14 45 -45 90 -27 40 -50 74 -50 77 0 2 7 4 15
4 8 0 15 7 15 15 0 8 -5 15 -11 15 -11 0 -86 73 -110 107 -8 12 -35 32 -60 46
-95 50 -121 80 -68 77 19 -1 40 -2 47 -1 23 2 12 32 -18 49 -16 9 -30 20 -30
25 0 4 -6 7 -13 7 -19 0 -43 30 -51 63 -6 25 -4 27 28 27 20 0 36 -6 39 -14 7
-17 66 -48 78 -40 5 3 4 14 -1 25 -6 10 -7 19 -3 19 4 0 -5 7 -21 15 -15 8
-35 15 -42 15 -8 0 -14 11 -14 26 0 22 -3 24 -14 15 -10 -8 -21 -9 -33 -3 -10
5 -24 7 -30 5 -7 -3 -13 1 -13 8 0 7 -6 4 -14 -7 -21 -28 -33 -8 -15 24 10 19
22 27 39 26 50 -3 90 -17 115 -40 14 -13 34 -24 44 -24 10 0 37 -20 60 -45 23
-25 46 -45 51 -45 6 0 10 -6 10 -13 0 -21 47 -60 64 -54 20 8 74 -13 105 -41
14 -13 33 -30 42 -38 9 -8 19 -28 22 -44 7 -31 42 -70 64 -70 8 0 27 -7 43
-15 l30 -16 0 931 0 930 -38 0 c-42 0 -125 -25 -157 -47 -11 -7 -31 -13 -45
-13 -14 0 -42 -5 -63 -11 -37 -10 -38 -11 -23 -28 11 -12 38 -21 74 -25 107
-12 138 -37 148 -120 2 -15 11 -43 20 -62 21 -44 12 -84 -19 -84 -12 0 -35 -9
-52 -20 -16 -11 -33 -20 -36 -20 -3 0 -25 18 -50 40 -24 22 -50 40 -56 40 -7
0 -42 -29 -77 -64 l-63 -64 -76 -1 c-66 -1 -78 2 -87 18 -5 11 -26 25 -45 31
-19 6 -35 15 -35 20 0 5 -9 12 -20 15 -23 7 -55 62 -51 88 1 10 -4 17 -14 17
-19 0 -38 17 -48 43 -3 9 -11 17 -17 17 -5 0 -10 8 -10 18 0 18 -32 52 -50 52
-5 0 -13 6 -17 13 -8 13 -39 38 -83 67 -13 8 -34 27 -48 42 -14 15 -34 30 -44
34 -24 7 -58 40 -58 54 0 6 -13 13 -29 16 -17 4 -32 12 -35 20 -3 8 -12 14
-20 14 -8 0 -38 16 -68 35 -42 28 -54 42 -58 68 -4 25 -10 31 -25 29 -11 -1
-30 -2 -42 -2 -25 1 -41 1 -145 -1 -37 0 -84 1 -105 4 -21 2 -60 1 -88 -3z
m125 -1281 c25 -6 59 -17 75 -25 17 -7 46 -16 65 -19 19 -3 57 -16 84 -30 27
-14 55 -25 63 -25 17 0 43 -27 67 -69 17 -30 17 -34 2 -49 -12 -12 -16 -13
-16 -3 0 11 -14 12 -72 6 -40 -4 -95 -9 -122 -10 -63 -4 -175 -25 -181 -35 -2
-4 1 -14 8 -23 11 -15 26 -16 137 -7 69 5 153 15 187 22 61 11 64 11 89 -13
14 -13 30 -33 34 -44 8 -19 9 -19 9 3 1 30 31 29 31 -1 0 -13 -11 -34 -24 -46
-30 -29 -99 -31 -167 -7 -55 19 -151 16 -194 -7 -34 -17 -67 -67 -57 -84 4 -6
24 -14 45 -18 30 -6 37 -4 37 8 0 8 -5 17 -12 19 -8 3 -7 6 4 10 10 4 19 -2
27 -18 9 -19 8 -24 -4 -24 -8 0 -15 -7 -15 -16 0 -13 10 -15 67 -8 54 5 71 12
89 33 15 16 23 21 24 12 0 -8 -7 -23 -17 -33 -15 -17 -14 -18 19 -18 20 0 41
-7 48 -15 7 -9 21 -13 31 -10 11 4 19 5 19 3 0 -2 9 -28 20 -58 21 -58 28
-174 10 -185 -5 -3 -10 -23 -10 -43 0 -20 -7 -50 -15 -66 -8 -15 -15 -39 -15
-52 0 -13 -4 -24 -10 -24 -5 0 -10 -6 -10 -12 -1 -7 -9 -31 -20 -53 -11 -22
-19 -46 -20 -53 0 -8 -6 -26 -14 -40 -7 -15 -24 -49 -36 -77 -13 -27 -35 -64
-49 -81 -14 -18 -47 -65 -73 -105 -25 -41 -55 -83 -66 -94 -27 -28 -71 -65
-77 -65 -3 0 -15 -9 -27 -20 -12 -11 -28 -20 -35 -20 -7 0 -13 -4 -13 -9 0 -5
-29 -17 -65 -26 -55 -15 -76 -16 -151 -7 -48 7 -105 21 -130 34 -65 32 -146
109 -173 164 -13 27 -39 66 -57 86 -18 21 -45 61 -59 89 -15 28 -35 61 -46 72
-10 11 -21 29 -25 39 -3 10 -10 18 -15 18 -19 0 -59 53 -59 78 0 19 -4 23 -19
19 -14 -3 -17 0 -14 14 3 11 0 19 -6 19 -6 0 -11 -6 -11 -12 -2 -37 -34 72
-51 167 -23 136 -24 240 -3 297 16 41 54 129 60 136 1 2 21 8 45 13 32 7 45 6
58 -4 9 -8 30 -19 47 -26 42 -16 181 -40 203 -34 9 2 25 20 36 39 13 24 25 34
43 34 20 0 23 -4 19 -21 -7 -27 39 -51 54 -28 17 28 8 57 -30 94 -63 61 -208
90 -331 65 -63 -12 -90 -4 -90 27 0 42 31 82 68 89 36 7 42 6 197 -50 114 -42
230 -70 245 -61 5 3 10 15 10 25 0 22 -29 38 -115 65 -80 24 -168 57 -180 67
-5 4 -18 8 -29 8 -18 0 -19 1 -1 20 10 11 28 20 40 20 13 0 28 6 34 14 6 7 36
16 66 18 29 3 61 11 71 19 40 33 328 45 444 18z m1060 -108 c0 -3 24 -7 53 -9
28 -1 67 -9 86 -18 l35 -17 -27 -13 c-19 -10 -33 -11 -52 -4 -14 6 -40 10 -56
10 -18 0 -32 6 -36 16 -3 8 -12 13 -19 10 -15 -6 -28 9 -20 22 6 10 36 12 36
3z m-628 -75 c10 -15 10 -54 0 -60 -15 -9 -29 9 -36 46 -6 33 -5 37 11 31 10
-4 21 -11 25 -17z m-1062 -201 c7 -14 10 -28 7 -32 -8 -8 -47 31 -47 47 0 20
27 10 40 -15z m1117 -52 c-3 -10 -5 -2 -5 17 0 19 2 27 5 18 2 -10 2 -26 0
-35z m480 -5 c-3 -8 -6 -5 -6 6 -1 11 2 17 5 13 3 -3 4 -12 1 -19z m-477 -38
c0 -11 -4 -20 -9 -20 -5 0 -7 9 -4 20 3 11 7 20 9 20 2 0 4 -9 4 -20z m-24
-131 c-3 -34 -7 -74 -7 -88 -1 -14 -5 1 -8 34 -8 70 -3 115 12 115 6 0 8 -22
3 -61z m-29 -231 c-2 -13 -4 -5 -4 17 -1 22 1 32 4 23 2 -10 2 -28 0 -40z
m-66 -214 c-5 -16 -10 -21 -10 -12 -1 18 10 51 15 45 2 -1 -1 -16 -5 -33z
m150 -21 c-12 -20 -14 -14 -5 12 4 9 9 14 11 11 3 -2 0 -13 -6 -23z m-24 -55
c-3 -8 -6 -5 -6 6 -1 11 2 17 5 13 3 -3 4 -12 1 -19z m-10 -40 c-3 -8 -6 -5
-6 6 -1 11 2 17 5 13 3 -3 4 -12 1 -19z"/>
<path d="M1521 1708 c5 -18 6 -52 3 -75 -7 -46 3 -54 28 -25 24 27 30 57 16
88 -14 31 -26 44 -45 44 -8 0 -9 -9 -2 -32z"/>
<path d="M1444 1429 c-22 -11 -96 -74 -163 -140 -118 -117 -122 -121 -107
-142 9 -12 23 -37 33 -56 9 -19 32 -43 50 -53 22 -13 33 -28 33 -43 0 -12 11
-34 25 -49 14 -15 25 -30 25 -34 0 -4 14 -16 30 -27 16 -11 30 -23 30 -27 0
-5 5 -8 12 -8 6 0 20 -8 30 -17 25 -23 148 -21 268 3 23 5 23 6 6 16 -17 9
-11 14 39 34 32 13 67 24 77 24 10 0 18 5 18 10 0 6 7 10 15 10 8 0 15 9 15
21 0 12 4 17 11 14 6 -4 20 2 32 13 23 21 99 64 104 59 1 -2 -2 -28 -9 -59 -6
-30 -8 -63 -4 -74 7 -18 8 -18 27 5 10 13 19 29 19 36 0 7 6 17 13 24 8 6 14
34 15 65 1 56 -6 70 -65 136 -13 14 -23 29 -23 33 0 5 -13 28 -30 52 -16 24
-30 51 -30 59 0 9 -7 16 -15 16 -8 0 -15 7 -15 15 0 8 -6 15 -14 15 -11 0 -10
-8 4 -37 10 -21 31 -65 46 -98 15 -32 38 -75 51 -93 13 -19 23 -40 23 -47 0
-28 -374 -37 -449 -11 -24 9 -73 21 -110 26 -36 6 -83 15 -103 21 -34 9 -36
12 -26 29 17 26 48 32 75 14 47 -30 168 -26 188 7 8 12 -42 64 -79 83 -23 12
-33 13 -44 3 -11 -9 -18 -7 -33 12 -22 27 -24 59 -7 96 21 46 66 19 54 -32 -5
-21 -4 -24 4 -13 5 8 10 25 10 38 0 12 5 22 10 22 17 0 11 49 -7 59 -13 6 -30
3 -59 -10z m-14 -411 c0 -18 1 -18 16 -4 19 20 23 20 45 0 21 -19 228 -23 239
-3 4 6 16 8 28 5 12 -4 31 -2 42 4 12 6 32 10 45 8 l24 -3 -27 -42 c-27 -43
-47 -53 -55 -30 -3 8 -11 5 -26 -10 -13 -13 -28 -20 -37 -16 -9 3 -20 0 -25
-8 -10 -17 -172 -16 -177 1 -2 5 -14 10 -26 10 -13 0 -31 9 -40 19 -10 11 -28
21 -40 23 -21 3 -33 35 -22 64 7 20 36 6 36 -18z"/>
<path d="M950 1211 c0 -25 6 -27 13 -6 4 8 2 17 -3 20 -6 4 -10 -3 -10 -14z"/>
<path d="M2155 1090 c-3 -6 1 -7 9 -4 18 7 21 14 7 14 -6 0 -13 -4 -16 -10z"/>
<path d="M2095 1020 c-3 -6 1 -7 9 -4 18 7 21 14 7 14 -6 0 -13 -4 -16 -10z"/>
<path d="M1240 903 c0 -23 5 -33 15 -33 18 0 18 1 0 36 l-15 29 0 -32z"/>
<path d="M1280 849 c0 -17 66 -79 84 -79 27 0 18 27 -21 59 -39 32 -63 39 -63
20z"/>
<path d="M2963 3091 c-44 -32 -81 -87 -75 -113 4 -22 40 -23 79 -4 15 8 36 17
45 20 9 3 24 21 34 41 13 29 14 41 6 61 -15 32 -40 30 -89 -5z"/>
<path d="M210 3006 c-5 -15 -10 -29 -10 -31 0 -14 100 -45 176 -55 100 -14
196 -4 267 27 94 41 14 62 -295 79 l-127 7 -11 -27z"/>
<path d="M2470 1685 c0 -8 4 -15 10 -15 5 0 7 7 4 15 -4 8 -8 15 -10 15 -2 0
-4 -7 -4 -15z"/>
<path d="M2470 1628 c0 -9 5 -20 11 -23 17 -11 20 0 4 21 -13 17 -14 17 -15 2z"/>
<path d="M2563 1410 c0 -110 1 -116 6 -45 3 44 3 100 0 125 -4 26 -6 -8 -6
-80z"/>
<path d="M728 1315 c-6 -14 -17 -25 -23 -25 -7 0 -20 -11 -29 -25 -9 -13 -35
-44 -58 -68 -24 -25 -51 -62 -61 -83 -25 -53 -41 -85 -54 -109 -31 -56 -53
-108 -53 -124 0 -10 -7 -24 -15 -31 -16 -13 -21 -50 -7 -50 9 0 96 90 137 140
39 49 95 135 95 148 0 6 4 12 8 12 8 0 24 34 52 115 31 89 38 164 8 100z"/>
<path d="M2537 1183 c-3 -43 -11 -118 -17 -168 -10 -82 -8 -152 7 -214 5 -22
6 -22 16 -5 7 12 12 106 13 242 1 220 -8 294 -19 145z"/>
<path d="M506 1203 c-6 -14 -5 -15 5 -6 7 7 10 15 7 18 -3 3 -9 -2 -12 -12z"/>
<path d="M3180 1178 c0 -7 16 -31 35 -53 39 -45 44 -38 12 19 -23 40 -47 58
-47 34z"/>
<path d="M176 1114 c-6 -15 -4 -15 11 -3 10 7 20 15 22 16 2 2 -3 3 -11 3 -9
0 -19 -7 -22 -16z"/>
<path d="M3280 1033 c0 -12 5 -25 11 -28 19 -12 22 3 5 27 l-16 22 0 -21z"/>
<path d="M200 1015 c0 -8 2 -15 4 -15 2 0 6 7 10 15 3 8 1 15 -4 15 -6 0 -10
-7 -10 -15z"/>
<path d="M247 1013 c-4 -3 -7 -15 -7 -26 0 -16 3 -17 15 -7 8 7 15 19 15 26 0
15 -12 19 -23 7z"/>
<path d="M235 950 c-4 -7 -18 -9 -31 -6 -36 9 -64 -10 -64 -42 0 -16 -5 -33
-12 -40 -8 -8 -8 -15 2 -26 7 -9 9 -23 5 -33 -11 -25 -6 -56 11 -69 11 -9 12
-18 5 -37 -8 -20 -6 -27 5 -31 8 -3 12 -10 9 -16 -3 -5 -1 -10 4 -10 6 0 11
-13 11 -30 0 -35 9 -38 33 -10 19 22 23 50 7 50 -11 0 -8 30 6 64 4 11 2 21
-6 26 -10 6 -9 13 4 31 9 13 16 36 16 52 0 16 7 44 16 62 17 36 16 66 -3 72
-6 2 -14 -1 -18 -7z"/>
<path d="M3290 920 c0 -5 5 -10 10 -10 6 0 10 5 10 10 0 6 -4 10 -10 10 -5 0
-10 -4 -10 -10z"/>
<path d="M2840 785 c0 -9 59 -65 101 -97 19 -15 61 -36 94 -48 91 -33 106 -35
45 -4 -47 23 -133 77 -150 94 -6 6 -59 43 -77 54 -7 4 -13 4 -13 1z"/>
<path d="M2554 748 c4 -18 9 -67 12 -108 5 -78 21 -133 34 -125 5 3 6 -4 3
-15 -3 -11 0 -34 7 -52 6 -18 15 -53 20 -78 14 -77 38 -153 66 -212 26 -54 29
-57 45 -42 17 15 18 13 14 -40 -5 -57 0 -66 24 -44 11 11 13 9 9 -9 -5 -20 -2
-21 53 -22 45 0 59 3 59 15 0 7 -8 14 -17 15 -11 0 -13 3 -5 6 14 5 16 30 4
35 -5 1 -12 20 -15 41 -5 34 -4 36 13 27 10 -5 21 -15 24 -22 3 -7 2 1 -1 17
-4 18 -28 51 -63 85 -54 53 -99 113 -129 173 -8 15 -20 27 -27 27 -16 0 -24
23 -24 69 0 20 -7 46 -15 57 -8 10 -15 30 -15 44 0 14 -7 38 -15 54 -8 15 -15
37 -15 48 0 14 -5 18 -15 14 -12 -4 -15 3 -15 34 0 23 -5 40 -11 40 -8 0 -9
-11 -5 -32z m261 -627 c3 -5 1 -12 -5 -16 -5 -3 -10 1 -10 9 0 18 6 21 15 7z"/>
<path d="M2471 683 c0 -56 3 -93 9 -93 11 0 12 50 0 130 -7 51 -7 49 -9 -37z"/>
<path d="M2321 694 c0 -11 3 -14 6 -6 3 7 2 16 -1 19 -3 4 -6 -2 -5 -13z"/>
<path d="M2347 662 c-10 -26 -25 -62 -33 -80 -8 -18 -14 -37 -14 -43 0 -13
-22 -66 -53 -126 -12 -23 -18 -45 -14 -49 4 -4 7 -2 7 4 0 7 7 12 15 12 8 0
24 19 35 43 l21 42 -6 -72 c-5 -57 -3 -73 7 -73 8 0 14 16 16 47 2 26 7 52 12
58 12 15 41 255 32 270 -5 10 -13 -1 -25 -33z"/>
<path d="M2711 664 c0 -11 3 -14 6 -6 3 7 2 16 -1 19 -3 4 -6 -2 -5 -13z"/>
<path d="M2855 670 c3 -5 8 -10 11 -10 2 0 4 5 4 10 0 6 -5 10 -11 10 -5 0 -7
-4 -4 -10z"/>
<path d="M2870 645 c0 -9 123 -125 133 -125 4 0 -4 12 -18 27 -14 15 -25 31
-25 35 0 12 -64 68 -77 68 -7 0 -13 -2 -13 -5z"/>
<path d="M2731 623 c1 -18 48 -107 49 -91 0 9 -4 19 -9 23 -5 3 -12 19 -16 35
-6 26 -26 54 -24 33z"/>
<path d="M541 600 c-13 -11 -29 -20 -35 -20 -7 0 -35 -20 -62 -45 -27 -25 -43
-45 -37 -45 6 0 13 3 15 8 2 4 24 18 51 32 54 28 128 90 106 90 -8 -1 -25 -10
-38 -20z"/>
<path d="M2267 596 c-4 -10 -7 -25 -6 -34 0 -11 4 -9 10 7 5 13 8 29 6 35 -2
5 -6 2 -10 -8z"/>
<path d="M3030 550 c-9 -6 -10 -10 -3 -10 6 0 15 5 18 10 8 12 4 12 -15 0z"/>
<path d="M2236 525 c-4 -14 -11 -25 -16 -25 -6 0 -10 -4 -10 -10 0 -5 6 -7 14
-4 14 5 31 52 23 61 -3 2 -7 -8 -11 -22z"/>
<path d="M3100 534 c0 -10 44 -43 58 -44 8 0 27 -13 44 -30 16 -16 37 -30 46
-30 26 0 100 29 77 30 -11 0 -40 11 -64 25 -24 14 -61 28 -82 31 -22 4 -42 11
-45 15 -6 10 -34 12 -34 3z"/>
<path d="M2690 440 c0 -5 5 -10 11 -10 5 0 7 5 4 10 -3 6 -8 10 -11 10 -2 0
-4 -4 -4 -10z"/>
<path d="M2945 416 c9 -13 25 -26 37 -29 18 -5 17 -2 -8 24 -34 35 -51 38 -29
5z"/>
<path d="M3335 424 c4 -10 10 -29 12 -41 5 -21 11 -23 80 -23 64 0 74 2 71 16
-6 30 -52 55 -113 61 -55 6 -58 5 -50 -13z"/>
<path d="M3280 407 c0 -8 9 -22 20 -32 19 -18 20 -17 20 3 0 12 -9 26 -20 32
-16 8 -20 8 -20 -3z"/>
<path d="M3010 371 c0 -10 19 -25 25 -20 1 2 -3 10 -11 17 -8 7 -14 8 -14 3z"/>
<path d="M2121 353 c0 -6 -4 -20 -7 -30 -5 -14 -4 -15 5 -7 7 7 11 20 8 30 -3
11 -5 14 -6 7z"/>
<path d="M50 289 c0 -5 5 -7 10 -4 6 3 10 8 10 11 0 2 -4 4 -10 4 -5 0 -10 -5
-10 -11z"/>
<path d="M368 291 c-9 -3 -49 -32 -87 -65 -67 -55 -85 -86 -61 -101 13 -8 50
-89 50 -109 0 -14 21 -16 150 -16 92 0 150 4 150 10 0 5 -21 40 -47 77 -25 38
-59 86 -74 108 -15 23 -31 53 -34 67 -8 30 -22 38 -47 29z"/>
<path d="M2301 250 c1 -30 3 -47 6 -37 2 9 9 17 15 17 12 0 2 49 -13 65 -5 5
-9 -12 -8 -45z"/>
<path d="M3400 285 c0 -10 10 -15 29 -15 16 0 38 -3 48 -6 14 -4 13 -1 -6 15
-27 25 -71 28 -71 6z"/>
<path d="M2090 265 c1 -26 2 -28 11 -12 8 14 8 22 0 30 -8 8 -11 3 -11 -18z"/>
<path d="M3206 219 c20 -23 24 -23 24 -5 0 7 -9 16 -21 19 -20 5 -20 5 -3 -14z"/>
<path d="M2917 153 c-3 -3 3 -15 14 -26 11 -12 15 -23 9 -27 -5 -3 -1 -19 10
-38 11 -18 20 -39 20 -47 0 -17 65 -22 75 -5 10 16 -47 100 -68 100 -5 0 -20
11 -32 24 -13 14 -25 22 -28 19z"/>
<path d="M2061 114 c0 -11 3 -14 6 -6 3 7 2 16 -1 19 -3 4 -6 -2 -5 -13z"/>
<path d="M2213 75 c0 -22 2 -30 4 -17 2 12 2 30 0 40 -3 9 -5 -1 -4 -23z"/>
<path d="M2302 53 c4 -66 28 -70 28 -4 0 39 -4 51 -16 51 -12 0 -14 -10 -12
-47z"/>
<path d="M2090 61 c0 -25 6 -27 13 -6 4 8 2 17 -3 20 -6 4 -10 -3 -10 -14z"/>
<path d="M2361 43 c-1 -31 3 -43 13 -43 15 0 14 5 -7 70 -3 8 -6 -4 -6 -27z"/>
<path d="M2061 54 c0 -11 3 -14 6 -6 3 7 2 16 -1 19 -3 4 -6 -2 -5 -13z"/>
<path d="M3430 54 c0 -18 38 -53 58 -54 22 0 13 26 -18 48 -35 26 -40 27 -40
6z"/>
<path d="M2096 15 c-3 -9 0 -15 9 -15 8 0 15 7 15 15 0 8 -4 15 -9 15 -5 0
-11 -7 -15 -15z"/>
<path d="M2200 15 c0 -8 5 -15 10 -15 6 0 10 7 10 15 0 8 -4 15 -10 15 -5 0
-10 -7 -10 -15z"/>
</g>
</svg>
