<?xml version="1.0" standalone="no"?>
<!DOCTYPE svg PUBLIC "-//W3C//DTD SVG 20010904//EN"
 "http://www.w3.org/TR/2001/REC-SVG-20010904/DTD/svg10.dtd">
<svg version="1.0" xmlns="http://www.w3.org/2000/svg"
 width="351.000000pt" height="349.000000pt" viewBox="0 0 351.000000 349.000000"
 preserveAspectRatio="xMidYMid meet">

<g transform="translate(0.000000,349.000000) scale(0.100000,-0.100000)"
fill="#000000" stroke="none">
<path d="M966 3468 c-19 -26 -21 -69 -5 -85 15 -15 -7 -146 -30 -174 -16 -20
-21 -21 -55 -9 -21 6 -52 10 -69 7 -43 -6 -245 31 -281 51 -31 18 -34 23 -62
90 -18 43 -33 52 -53 29 -6 -8 -41 -19 -78 -26 -57 -10 -80 -9 -141 4 -40 8
-100 15 -133 15 l-59 0 0 -505 c0 -420 2 -505 14 -505 7 0 30 -13 51 -30 38
-30 59 -38 175 -59 35 -7 76 -19 90 -26 14 -7 71 -18 127 -24 56 -6 112 -15
125 -21 19 -8 213 -50 232 -50 15 0 126 -252 126 -285 0 -19 4 -35 9 -35 9 0
21 72 21 134 0 23 7 52 16 65 15 20 22 22 78 18 33 -3 78 -9 99 -14 l38 -8
-48 -26 c-34 -18 -47 -31 -45 -44 3 -12 -1 -16 -11 -12 -19 7 -29 -17 -21 -49
5 -20 9 -22 25 -13 11 5 61 17 112 24 171 27 160 23 153 51 -5 17 -2 24 9 24
19 0 19 9 0 34 -8 11 -15 27 -15 35 0 9 -13 31 -29 50 l-28 34 -69 -12 c-38
-7 -87 -15 -109 -17 -80 -9 -105 -15 -105 -27 0 -13 -39 -42 -46 -34 -7 7 -23
151 -24 212 0 68 26 170 59 230 13 22 55 72 95 111 81 78 150 110 238 107 27
0 46 3 43 8 -3 5 25 8 63 8 37 0 87 4 110 11 53 14 292 15 350 2 45 -11 82
-36 82 -58 0 -7 14 -24 31 -38 24 -20 35 -24 49 -16 11 6 21 6 25 1 3 -5 1
-63 -4 -128 -6 -84 -14 -131 -28 -160 -20 -41 -20 -41 0 -61 28 -29 13 -45
-37 -38 -62 8 -274 -27 -350 -59 -31 -13 -37 -20 -32 -37 3 -14 -5 -37 -24
-65 -20 -29 -30 -57 -30 -81 0 -21 -6 -46 -14 -57 -25 -38 -27 -73 -6 -115 32
-63 27 -95 -25 -152 -68 -76 -71 -117 -8 -118 25 0 54 -41 34 -48 -17 -6 -13
-22 7 -22 9 0 24 -13 33 -29 9 -16 37 -38 65 -51 27 -13 57 -32 67 -42 17 -17
17 -18 -1 -18 -11 0 -36 7 -55 15 -45 19 -94 19 -127 0 -14 -8 -35 -14 -47
-15 -13 0 -23 -4 -23 -10 0 -5 -19 -10 -42 -10 -35 0 -47 -6 -80 -40 -21 -23
-38 -47 -38 -55 0 -8 -4 -15 -10 -15 -18 0 -10 -19 11 -25 12 -4 27 -1 37 7
32 28 77 37 195 41 110 3 117 2 117 -16 0 -22 -73 -97 -93 -97 -8 0 -17 -3
-21 -7 -3 -4 -29 -6 -56 -4 -48 2 -50 1 -50 -23 0 -20 5 -26 21 -26 12 0 39
-5 60 -11 28 -9 56 -9 116 1 43 7 97 15 121 18 32 3 42 8 38 18 -3 8 1 14 9
14 8 0 15 -9 15 -20 0 -11 6 -20 14 -20 10 0 14 13 14 43 0 23 6 55 12 72 8
21 8 31 1 33 -15 5 -14 32 2 32 6 0 19 13 29 29 20 36 44 33 88 -12 29 -30 40
-67 20 -67 -6 0 -15 -11 -20 -25 -5 -14 -20 -27 -35 -31 -18 -4 -25 -13 -25
-30 0 -13 -8 -33 -17 -44 -10 -11 -17 -23 -15 -25 1 -3 -7 -14 -18 -25 -11
-11 -20 -29 -20 -40 0 -13 -7 -20 -19 -20 -11 0 -22 -4 -25 -8 -3 -5 -21 -9
-41 -10 -55 -2 -105 -34 -105 -67 0 -11 -5 -15 -14 -12 -10 4 -13 1 -10 -7 8
-22 -10 -26 -39 -11 -20 10 -27 11 -27 2 0 -12 -34 -47 -45 -47 -3 0 -1 9 5
20 9 17 8 19 -7 13 -10 -4 -22 -13 -26 -20 -6 -9 -23 -13 -53 -11 -40 3 -49 9
-45 31 1 5 -4 7 -11 4 -7 -2 -12 -12 -12 -21 2 -18 -11 -22 -21 -6 -4 7 -13 7
-26 0 -16 -9 -19 -7 -19 10 0 11 -7 20 -15 20 -15 0 -45 49 -45 75 0 8 -8 15
-18 15 -19 0 -44 25 -74 77 -11 18 -26 33 -34 33 -8 0 -14 7 -14 16 0 9 -11
26 -24 38 -27 24 -45 82 -56 179 -4 38 -13 74 -20 80 -10 10 -11 7 -6 -13 3
-14 13 -79 21 -145 9 -66 20 -130 25 -143 14 -32 12 -42 -6 -42 -9 0 -29 -14
-44 -31 -26 -27 -35 -30 -82 -28 -85 3 -214 -8 -237 -21 -12 -6 -44 -11 -71
-12 -73 0 -231 22 -267 38 -17 8 -34 14 -37 14 -3 0 -38 15 -78 34 -63 30 -85
35 -161 38 l-87 3 0 -517 0 -518 569 0 569 0 7 33 c4 17 10 118 14 222 5 171
8 194 29 233 21 41 22 50 16 200 l-5 157 33 -40 c18 -22 51 -62 73 -89 77 -95
210 -146 384 -147 158 0 211 -24 211 -91 0 -18 5 -28 15 -28 19 0 20 -19 1
-26 -8 -3 -12 -12 -10 -19 4 -8 -3 -15 -18 -17 -12 -2 -24 -11 -26 -20 -3 -15
7 -17 71 -17 l75 0 26 39 c30 46 33 68 9 86 -17 12 -16 13 4 14 14 0 26 10 35
30 9 21 20 30 36 30 12 0 35 9 50 20 15 10 39 22 54 25 22 6 27 3 30 -17 2
-12 8 -22 14 -21 6 1 22 -9 34 -22 22 -23 23 -27 10 -67 -8 -24 -18 -49 -23
-56 -6 -8 -5 -12 5 -12 26 0 112 61 171 121 31 32 60 59 62 59 12 0 3 -26 -25
-67 -17 -24 -30 -48 -30 -53 0 -4 -6 -11 -13 -13 -6 -3 3 -3 21 0 l34 6 -4
-39 c-2 -32 0 -39 14 -38 22 2 32 -29 19 -55 -17 -32 -13 -62 9 -68 34 -9 21
-53 -32 -106 -31 -31 -38 -49 -10 -25 35 31 41 30 32 -3 -5 -17 -13 -36 -18
-42 -5 -7 -12 -27 -14 -45 l-5 -32 504 0 503 0 0 1745 0 1745 -1264 0 -1265 0
-15 -22z m1024 -1363 c0 -12 -7 -14 -27 -9 -45 11 -51 24 -10 24 26 0 37 -4
37 -15z m-156 -91 c9 -23 8 -24 -14 -24 -11 0 -20 2 -20 4 0 12 13 36 20 36 4
0 11 -7 14 -16z m63 10 c-3 -3 -12 -4 -19 -1 -8 3 -5 6 6 6 11 1 17 -2 13 -5z
m60 -56 c4 -7 6 -21 4 -32 -2 -16 3 -18 46 -12 26 3 69 7 95 10 27 3 62 12 78
21 37 19 65 8 74 -31 8 -30 -3 -114 -14 -114 -4 0 -10 -19 -13 -42 -3 -23 -19
-61 -36 -85 -17 -24 -31 -46 -31 -50 0 -3 -13 -18 -28 -32 -16 -14 -34 -41
-41 -58 -8 -18 -17 -33 -22 -33 -5 0 -9 -38 -9 -84 0 -92 -14 -121 -42 -88 -8
9 -18 24 -21 33 -3 9 -22 30 -43 45 -33 25 -46 29 -107 29 -57 0 -71 3 -85 21
-17 20 -24 24 -42 24 -17 0 -11 41 10 67 25 31 25 72 3 121 -12 25 -17 63 -18
119 l0 83 33 -6 c29 -6 32 -4 32 19 0 17 7 28 20 32 24 8 27 25 3 25 -27 0 -6
13 34 20 61 12 111 11 120 -2z m-623 -16 c10 -5 -13 -22 -31 -22 -7 0 -13 9
-13 20 0 18 13 19 44 2z m423 2 c-3 -3 -12 -4 -19 -1 -8 3 -5 6 6 6 11 1 17
-2 13 -5z m1025 -349 c10 -21 9 -29 -5 -43 -11 -10 -17 -12 -17 -4 0 7 -9 12
-20 12 -24 0 -25 8 -4 38 20 29 32 28 46 -3z m-142 -135 c-19 -12 -40 -13 -40
0 0 5 8 13 18 19 22 13 44 -5 22 -19z m14 -39 c-10 -10 -21 -14 -23 -8 -4 10
17 27 33 27 5 0 1 -8 -10 -19z m-611 -146 c-8 -22 -22 -18 -16 5 3 11 9 17 14
15 4 -3 6 -12 2 -20z m-403 -10 c0 -10 -41 -25 -52 -19 -8 5 -5 10 8 15 22 9
44 11 44 4z m-90 -20 c-7 -8 -28 -15 -46 -15 -24 0 -34 5 -34 15 0 11 12 15
46 15 40 0 45 -2 34 -15z"/>
<path d="M941 1624 c-2 -69 33 -193 59 -209 6 -3 11 -18 11 -33 1 -19 3 -21 6
-8 3 10 -9 56 -27 102 -17 47 -35 106 -40 132 -6 37 -8 40 -9 16z"/>
<path d="M1386 1594 c-9 -24 -9 -24 29 -24 23 0 35 5 35 14 0 27 -54 35 -64
10z"/>
<path d="M1385 1434 c-23 -35 -13 -41 18 -10 23 23 25 36 6 36 -3 0 -14 -12
-24 -26z"/>
<path d="M1985 1220 c3 -5 8 -10 11 -10 2 0 4 5 4 10 0 6 -5 10 -11 10 -5 0
-7 -4 -4 -10z"/>
<path d="M1220 393 c0 -5 7 -18 15 -29 13 -18 14 -18 8 4 -5 22 -23 41 -23 25z"/>
<path d="M1550 35 l-34 -35 33 0 c35 0 60 21 61 53 0 27 -23 20 -60 -18z"/>
<path d="M2328 3 c7 -3 16 -2 19 1 4 3 -2 6 -13 5 -11 0 -14 -3 -6 -6z"/>
</g>
</svg>
